<?xml version="1.0" encoding="UTF-8"?>
<svg width="700px" height="180px" viewBox="0 0 700 180" version="1.1" xmlns="http://www.w3.org/2000/svg" xmlns:xlink="http://www.w3.org/1999/xlink">
  <defs>
    <path d="M60.7975718,-1.98348177e-15 L79.2024282,1.98348177e-15 C97.5309269,-1.38340882e-15 106.272994,2.32064028 114.421143,6.67831759 C122.569291,11.0359949 128.964005,17.4307093 133.321682,25.5788574 C137.67936,33.7270056 140,42.4690731 140,60.7975718 L140,79.2024282 C140,97.5309269 137.67936,106.272994 133.321682,114.421143 C128.964005,122.569291 122.569291,128.964005 114.421143,133.321682 C106.272994,137.67936 97.5309269,140 79.2024282,140 L60.7975718,140 C42.4690731,140 33.7270056,137.67936 25.5788574,133.321682 C17.4307093,128.964005 11.0359949,122.569291 6.67831759,114.421143 C2.32064028,106.272994 9.22272548e-16,97.5309269 -1.32232118e-15,79.2024282 L1.32232118e-15,60.7975718 C-9.22272548e-16,42.4690731 2.32064028,33.7270056 6.67831759,25.5788574 C11.0359949,17.4307093 17.4307093,11.0359949 25.5788574,6.67831759 C33.7270056,2.32064028 42.4690731,1.38340882e-15 60.7975718,-1.98348177e-15 Z M58.1000065,106.032 L58.1000065,106.77 C58.1000065,108.41 68.9240083,108.41 68.9240083,106.77 L68.9240083,57.5699917 C61.6260071,54.7819913 56.7060063,53.305991 46.6200046,53.305991 C33.2540024,53.305991 22.4300007,64.0479928 22.4300007,77.331995 L22.4300007,83.9739961 C22.4300007,97.1759982 33.2540024,108 46.6200046,108 L48.588005,108 C51.9500055,108 55.148006,107.262 58.1000065,106.032 Z M58.1000065,66.2619932 L58.1000065,93.2399976 C55.7220061,95.699998 52.2780056,97.2579982 48.588005,97.2579982 L46.6200046,97.2579982 C39.2400034,97.2579982 33.2540024,91.2719973 33.2540024,83.9739961 L33.2540024,77.331995 C33.2540024,70.0339938 39.2400034,64.0479928 46.6200046,64.0479928 L48.588005,64.0479928 C52.6880056,64.2939928 55.066006,65.113993 58.1000065,66.2619932 Z M96.5840007,31.9039875 L96.5840007,96.1919981 C96.5840007,100.209999 97.5680008,103.243999 99.7820012,105.622 C103.062002,108.41 108.802003,107.918 112.820003,108 C116.100004,108 115.854004,97.1759982 112.984003,97.1759982 C112.328003,97.1759982 109.294003,97.0939982 108.474003,96.027998 C107.900003,95.2899979 107.326002,93.9779977 107.326002,88.5659968 L107.326002,31.9039875 C107.326002,30.5919873 96.5840007,30.5919873 96.5840007,31.9039875 Z M161.298001,77.331995 C161.298001,64.0479928 172.040002,53.305991 185.324005,53.305991 L187.210005,53.305991 C200.494007,53.305991 211.236009,64.0479928 211.236009,77.331995 L211.236009,83.9739961 C211.236009,97.2579982 200.494007,108 187.210005,108 L185.324005,108 C172.040002,108 161.298001,97.2579982 161.298001,83.9739961 L161.298001,77.331995 Z M200.494007,77.331995 C200.494007,70.0339938 194.590006,64.0479928 187.210005,64.0479928 L185.324005,64.0479928 C177.944003,64.0479928 172.040002,70.0339938 172.040002,77.331995 L172.040002,83.9739961 C172.040002,91.2719973 177.944003,97.2579982 185.324005,97.2579982 L187.210005,97.2579982 C194.590006,97.2579982 200.494007,91.2719973 200.494007,83.9739961 L200.494007,77.331995 Z M259.670003,80.6939955 L242.696001,54.4539912 C242.696001,52.895991 254.176003,52.895991 255.488003,54.5359912 L265.984004,70.8539939 L276.562006,54.5359912 C277.874006,52.895991 289.272008,52.895991 289.272008,54.4539912 L272.380006,80.6939955 L289.354008,106.852 C289.354008,108.41 277.382006,108.328 276.562006,106.77 L265.984004,90.5339971 L255.488003,106.77 C254.668003,108.328 242.696001,108.41 242.696001,106.852 L259.670003,80.6939955 Z M324.914,37.5440011 C324.914,33.7720005 327.948001,30.82 331.638002,30.82 L332.376002,30.82 C336.066002,30.82 339.100003,33.7720005 339.100003,37.5440011 L339.100003,39.9220015 C339.100003,43.6940021 336.066002,46.7280026 332.376002,46.7280026 L331.638002,46.7280026 C327.948001,46.7280026 324.914,43.6940021 324.914,39.9220015 L324.914,37.5440011 Z M326.636001,54.2079912 C326.636001,52.977991 337.378002,52.977991 337.378002,54.2079912 L337.378002,107.098 C337.378002,108.328 326.636001,108.328 326.636001,107.098 L326.636001,54.2079912 Z M374.660001,77.331995 C374.660001,64.0479928 385.484002,53.223991 398.686005,53.223991 C403.442005,53.223991 406.968006,53.5519911 410.166006,54.2079912 L410.166006,31.9859875 C410.166006,30.4279873 420.908008,30.4279873 420.908008,31.9859875 L420.908008,106.77 C420.908008,108.41 410.166006,108.41 410.166006,106.77 L410.166006,106.032 C407.214006,107.344 404.016005,108 400.654005,108 L398.686005,108 C385.484002,108 374.660001,97.2579982 374.660001,83.9739961 L374.660001,77.331995 Z M410.166006,66.2619932 C407.132006,65.031993 404.754006,64.2119928 400.654005,64.0479928 L398.686005,64.0479928 C391.388003,64.0479928 385.402002,69.9519938 385.402002,77.331995 L385.402002,83.9739961 C385.402002,91.2719973 391.388003,97.2579982 398.686005,97.2579982 L400.654005,97.2579982 C404.344006,97.2579982 407.788006,95.699998 410.166006,93.2399976 L410.166006,66.2619932 Z M482.134005,108 C469.260002,107.918 458.108001,97.4219983 458.108001,83.9739961 L458.108001,77.331995 C458.108001,64.0479928 468.850002,53.305991 482.134005,53.305991 L482.544005,53.305991 C495.828007,53.305991 506.570009,64.0479928 506.570009,77.331995 L506.570009,79.9559954 C506.570009,82.6619958 505.996009,85.6139963 504.356008,85.6139963 L468.932002,85.6139963 C469.834003,92.1739974 475.574004,97.2579982 482.134005,97.2579982 L484.184005,97.2579982 C489.514006,97.2579982 493.696007,93.8959977 495.582007,90.6979972 C497.058007,88.1559967 506.324009,93.4859976 504.848008,96.1099981 C501.486008,101.931999 494.106007,108 484.102005,108 L482.134005,108 Z M482.134005,64.0479928 C475.328003,64.0479928 469.670003,69.2139936 468.932002,75.8559947 L495.746007,75.8559947 C495.008007,69.2139936 489.350006,64.0479928 482.544005,64.0479928 L482.134005,64.0479928 Z" id="path-1"></path>
    <filter x="-0.8%" y="-2.9%" width="101.6%" height="105.7%" filterUnits="objectBoundingBox" id="filter-2">
      <feGaussianBlur stdDeviation="3" in="SourceAlpha" result="shadowBlurInner1"></feGaussianBlur>
      <feOffset dx="2" dy="2" in="shadowBlurInner1" result="shadowOffsetInner1"></feOffset>
      <feComposite in="shadowOffsetInner1" in2="SourceAlpha" operator="arithmetic" k2="-1" k3="1" result="shadowInnerInner1"></feComposite>
      <feColorMatrix values="0 0 0 0 0   0 0 0 0 0   0 0 0 0 0  0 0 0 0.672312063 0" type="matrix" in="shadowInnerInner1"></feColorMatrix>
    </filter>
  </defs>
  <g id="aloxide" stroke="none" stroke-width="1" fill="none" fill-rule="evenodd">
    <g id="Group" transform="translate(84.000000, 20.000000)">
      <g id="aloxide">
        <use fill="#FF425A" fill-rule="evenodd" xlink:href="#path-1"></use>
        <use fill="black" fill-opacity="1" filter="url(#filter-2)" xlink:href="#path-1"></use>
      </g>
    </g>
  </g>
</svg>
